# xmcd
#
# Track frame offsets:
#	150
#	16120
#	31443
#	47873
#	63800
#	81103
#	95948
#	111825
#	122720
#	136713
#	153698
#	166043
#	179480
#	191300
#	205228
#	221545
#	238688
#	256428
#	276178
#
# Disc length: 3892 seconds
#
# Revision: 1
# Processed by: cddbd v1.5.2PL0 Copyright (c) Steve Scherf et al.
# Submitted via: audiograbber 1.83.01
#
DISCID=0a0f3213
DTITLE=Varios - Cem Anos de Samba
DYEAR=1994
DGENRE=Samba
TTITLE0=Nego Véio Quando Morre - Dança do Bolim-Bolacho - Cabôca di Caxangá
TTITLE1=Urucubaca Miúda - Pelo Telefone - Já te Digo
TTITLE2=Esta Nêga que me Dá - Tatu Subiu no Pau - Patrão Prenda seu Gado
TTITLE3=Cristo Nasceu na Bahia - Jura - Vamos Deixar de Intimidades
TTITLE4=Risoleta - No Rancho Fundo - Minha Cabrocha
TTITLE5=Mulher de Malandro - A Tua Vida é um Segredo - Fita Amarela
TTITLE6=Samba da Minha Terra - Roda Pião - O que é que a Baiana Tem?
TTITLE7=Da Cor do Pecado - Camisa Amarela - Disseram que Voltei Americanizada
TTITLE8=Recenseamento - Helena, Helena - Leva meu Samba
TTITLE9=Amigo Urso - Rosa Morena - Ai que Saudades da Amélia
TTITLE10=Aos Pés da Santa Cruz - Largo da Lapa - Beija-me
TTITLE11=Pra Machucar meu Coração - Marina - Atire a Primeira Pedra
TTITLE12=Ninguém me Ama - Se eu Errei
TTITLE13=Zé Marmita - Estatutos da Gafieira - Pois é...
TTITLE14=Saudosa Maloca - Mulata Assanhada - Samba do Arnesto
TTITLE15=A Voz do Morro - Saudade da Bahia - Viva meu Samba
TTITLE16=Se Todos Fossem Iguais a Você - Piston de Gafieira - A Felicidade
TTITLE17=Desespero de Causa - Na Cadência do Samba - Volta por Cima
TTITLE18=Lá vem Mangueira - Bigorrilho - Trem das Onze
EXTD=
EXTT0=
EXTT1=
EXTT2=
EXTT3=
EXTT4=
EXTT5=
EXTT6=
EXTT7=
EXTT8=
EXTT9=
EXTT10=
EXTT11=
EXTT12=
EXTT13=
EXTT14=
EXTT15=
EXTT16=
EXTT17=
EXTT18=
PLAYORDER=
